<?xml version="1.0" encoding="UTF-8"?>
<svg width="200pt" height="200pt" version="1.1" viewBox="0 0 200 200" xmlns="http://www.w3.org/2000/svg">
<path d="m141.5 66.998c-1.2188 0-2.207-0.98828-2.207-2.2031 0-1.2188 0.98829-2.2031 2.207-2.2031 1.2148 0 2.1992 0.98438 2.1992 2.2031 0 1.2148-0.98437 2.2031-2.1992 2.2031m0-6.8945c-2.5938 0-4.6953 2.0977-4.6953 4.6914s2.1016 4.6953 4.6953 4.6953c2.5898 0 4.6914-2.1016 4.6914-4.6953s-2.1016-4.6914-4.6914-4.6914" fill="#fff"/>
<path d="m100 127.54-44.531-25.711v-11.301h6.0625v7.8008l38.469 22.211 38.469-22.211v-18.91h-83v-29.008l44.531-25.711 44.531 25.711v11.992h-6.0625v-8.4883l-38.469-22.211-38.469 22.211v19.438h83v28.477z" fill="#fff"/>
<path d="m100 112.75-31.715-18.312v-36.621l31.715-18.312 31.715 18.312v11.672h-6.0625v-8.1719l-25.652-14.812-25.652 14.812v29.617l25.652 14.812 25.652-14.812v-7.6211h6.0625v11.125z" fill="#c8cdcf"/>
<path d="m95.365 58.908h3.9023v-3.8984h-3.9023z" fill="#c8cdcf"/>
<path d="m100.74 58.908h3.9023v-3.8984h-3.9023z" fill="#c8cdcf"/>
<path d="m95.365 63.963h3.9023v-3.9024h-3.9023z" fill="#c8cdcf"/>
<path d="m100.74 63.963h3.9023v-3.9024h-3.9023z" fill="#c8cdcf"/>
<path d="m58.502 90.197c-1.2188 0-2.2031-0.98437-2.2031-2.1992 0-1.2188 0.98438-2.207 2.2031-2.207s2.2031 0.98828 2.2031 2.207c0 1.2148-0.98437 2.1992-2.2031 2.1992m0-6.8945c-2.5898 0-4.6914 2.1016-4.6914 4.6953 0 2.5898 2.1016 4.6914 4.6914 4.6914 2.5938 0 4.6953-2.1016 4.6953-4.6914 0-2.5938-2.1016-4.6953-4.6953-4.6953" fill="#fff"/>
<path d="m22.611 147.44c-1.4531-1.2344-3.3477-1.7969-5.2148-1.7969-1.4062 0-3.8867 0.36719-3.8867 2.2344 0 1.7969 2.0664 2.0898 4.2266 2.4727 3.7109 0.65625 7.2305 1.5078 7.2305 5.3672 0 4.1719-4.125 5.2188-7.4258 5.2188-2.8906 0-6.1406-0.80078-7.8633-3.3047l2.2812-2.1094c1.2891 1.918 3.5195 2.6211 5.7266 2.6211 1.6523 0 4.1992-0.26563 4.1992-2.3555 0-4.1016-11.547-1.0195-11.547-7.668 0-3.8828 3.9258-5.2656 7.082-5.2656 2.4258 0 5 0.4375 6.9648 1.9883z" fill="#fff"/>
<path d="m45.248 160.54v-12.277l-6.5039 12.277h-1.4805l-6.5976-12.277v12.277h-2.9844v-17.398h3.7109l6.6484 12.738 6.6484-12.738h3.5938v17.398z" fill="#fff"/>
<path d="m60.795 146.58-3.5195 6.8945h6.9922zm6.9414 13.957-2.2812-4.5625h-9.3633l-2.2852 4.5625h-3.5664l9.0312-17.398h3.0312l9.1719 17.398z" fill="#fff"/>
<path d="m76.611 146.03v5.8242h6.0664c1.7969 0 3.4023-0.85156 3.4023-2.9609 0-2.0625-1.457-2.8633-3.4297-2.8633zm10.629 14.512-4.7774-6.0664h-5.8516v6.0664h-3.1562v-17.398h9.4414c4.8086 0 6.2852 2.4766 6.2852 5.6523 0 2.4258-1.3555 4.3672-3.7812 4.9258l5.6758 6.8203z" fill="#fff"/>
<path d="m97.381 160.54v-14.512h-6.5508v-2.8867h16.254v2.8867h-6.5469v14.512z" fill="#fff"/>
<path d="m134.26 157.87c-1.2852 1.6719-4.1484 3.0586-7.7656 3.0586-5.7266 0-10.266-3.2774-10.266-9.0781 0-5.2422 3.6406-9.0039 10.727-9.0039 3.6641 0 6.4297 1.3828 7.4023 2.7891l-1.9922 2.4297c-1.1406-1.4844-3.0078-2.2852-5.75-2.2852-4.5625 0-7.1328 2.4531-7.1328 6.0703 0 3.7617 2.8398 6.0898 7.0117 6.0898 2.5469 0 4.5859-0.67578 5.7774-2.3281z" fill="#fff"/>
<path d="m150.83 143.14h3.1562v10.699c0 5.3672-4.1992 7.1094-8.5156 7.1094-4.3203 0-8.5195-1.7422-8.5195-7.1094v-10.699h3.1289v10.578c0 2.9375 2.0625 4.3203 5.3906 4.3203 3.3242 0 5.3594-1.3828 5.3594-4.3203z" fill="#fff"/>
<path d="m160.46 152.68v4.9297h6.2617c2.2344 0 3.3516-0.89844 3.3516-2.4531 0-1.8203-1.4609-2.4766-3.3047-2.4766zm0-6.6484v4.4648h5.6055c2.332 0 2.8906-1.1406 2.8906-2.3281 0-1.2617-0.80078-2.1367-2.9375-2.1367zm-3.1523 14.512v-17.398h8.1289c4.1719 0 6.5977 1.5781 6.5977 4.707 0 1.6758-0.77344 2.9609-2.3281 3.3711 1.8438 0.33984 3.4453 1.6055 3.4453 4.1016 0 3.3242-2.3281 5.2188-6.4062 5.2188z" fill="#fff"/>
<path d="m175.84 160.54v-17.398h14.219v2.8633h-11.066v4.3398h9.8516v2.4805h-9.8516v4.7539h11.332v2.9609z" fill="#fff"/>
<path d="m30.732 171.17c-0.44531-0.375-1.0195-0.54688-1.5938-0.54688-0.42968 0-1.1836 0.11328-1.1836 0.67969 0 0.54687 0.63281 0.63672 1.2891 0.7539 1.1328 0.20313 2.207 0.46094 2.207 1.6406 0 1.2695-1.2617 1.5898-2.2695 1.5898-0.8789 0-1.8711-0.24218-2.3945-1.0078l0.69531-0.64062c0.39454 0.58203 1.0742 0.79687 1.7461 0.79687 0.5039 0 1.2812-0.082 1.2812-0.71875 0-1.25-3.5234-0.3125-3.5234-2.3398 0-1.1836 1.1992-1.6055 2.1602-1.6055 0.73828 0 1.5234 0.13672 2.1289 0.60937z" fill="#fff"/>
<path d="m38.385 175.17v-3.7461l-1.9844 3.7461h-0.45312l-2.0117-3.7461v3.7461h-0.91016v-5.3047h1.1289l2.0312 3.8828 2.0273-3.8828h1.0977v5.3047z" fill="#fff"/>
<path d="m43.877 170.92-1.0742 2.1016h2.1328zm2.1133 4.2539-0.69141-1.3906h-2.8594l-0.69922 1.3906h-1.0859l2.7539-5.3047h0.92578l2.8008 5.3047z" fill="#fff"/>
<path d="m49.451 170.74v1.7773h1.8477c0.54688 0 1.0391-0.25781 1.0391-0.90234 0-0.62891-0.44922-0.875-1.0469-0.875zm3.2383 4.4258-1.457-1.8516h-1.7812v1.8516h-0.96484v-5.3047h2.875c1.4688 0 1.9219 0.75391 1.9219 1.7266 0 0.73829-0.41407 1.3281-1.1562 1.5039l1.7305 2.0742z" fill="#fff"/>
<path d="m56.533 175.17v-4.4258h-2.0039v-0.87891h4.9609v0.87891h-1.9961v4.4258z" fill="#fff"/>
<path d="m63.951 175.17v-5.3047h0.96094v4.4141h3.293v0.89063z" fill="#fff"/>
<path d="m69.689 169.87h0.96484v5.3047h-0.96484z" fill="#fff"/>
<path d="m74.666 175.17-2.625-5.3047h1.1055l1.832 3.8359 1.793-3.8359h1.0547l-2.5898 5.3047z" fill="#fff"/>
<path d="m79.217 169.87h0.96484v5.3047h-0.96484z" fill="#fff"/>
<path d="m86.275 175.17-3.3047-3.7305v3.7305h-0.94532v-5.3047h0.97657l3.2656 3.8711v-3.8711h0.9375v5.3047z" fill="#fff"/>
<path d="m93.439 173.1h-2.0156v-0.82812h2.9844v2.0312c-0.50782 0.76953-1.7695 1-2.4805 1-1.7227 0-3.1016-0.85938-3.1016-2.7617 0-1.6953 1.0742-2.7617 3.0859-2.7617 1.2461 0 1.9492 0.30469 2.4648 0.86719l-0.6211 0.73437c-0.36328-0.40234-0.77734-0.69922-1.9219-0.69922-1.3047 0-2.0312 0.66016-2.0312 1.8516 0 1.2656 0.89062 1.875 2.1719 1.875 0.67969 0 1.1914-0.16406 1.4648-0.45312z" fill="#fff"/>
<path d="m100.79 175.17v-4.4258h-1.9922v-0.87891h4.957v0.87891h-2v4.4258z" fill="#fff"/>
<path d="m105.18 175.17v-5.3047h4.3398v0.875h-3.3789v1.3203h3.0078v0.75782h-3.0078v1.4492h3.457v0.90234z" fill="#fff"/>
<path d="m116.54 174.36c-0.39062 0.51172-1.2656 0.93359-2.3672 0.93359-1.7461 0-3.1328-1-3.1328-2.7695 0-1.5976 1.1133-2.7461 3.2734-2.7461 1.1172 0 1.9609 0.42187 2.2578 0.85156l-0.60547 0.73828c-0.35156-0.44922-0.91797-0.6914-1.7578-0.6914-1.3906 0-2.1758 0.74609-2.1758 1.8476 0 1.1484 0.86719 1.8594 2.1406 1.8594 0.77344 0 1.3984-0.20703 1.7617-0.71094z" fill="#fff"/>
<path d="m122.19 175.17v-2.2773h-3.0625v2.2773h-0.96484v-5.3047h0.96484v2.1016h3.0625v-2.1016h0.96094v5.3047z" fill="#fff"/>
<path d="m129.22 175.17-3.3047-3.7305v3.7305h-0.94531v-5.3047h0.97656l3.2656 3.8711v-3.8711h0.9414v5.3047z" fill="#fff"/>
<path d="m134.88 170.69c-1.2305 0-2.1328 0.73829-2.1328 1.9024 0 1.1562 0.94922 1.8203 2.1328 1.8203 1.2461 0 2.1406-0.66406 2.1406-1.8203 0-1.1641-0.89453-1.9024-2.1406-1.9024m0 4.6133c-1.7461 0-3.1094-1.0586-3.1094-2.7109 0-1.6524 1.2461-2.8125 3.1094-2.8125 1.8359 0 3.1445 1.1602 3.1445 2.8125 0 1.6523-1.3086 2.7109-3.1445 2.7109" fill="#fff"/>
<path d="m139.66 175.17v-5.3047h0.96484v4.4141h3.293v0.89063z" fill="#fff"/>
<path d="m148.06 170.69c-1.2266 0-2.1328 0.73829-2.1328 1.9024 0 1.1562 0.94531 1.8203 2.1328 1.8203 1.2422 0 2.1406-0.66406 2.1406-1.8203 0-1.1641-0.89844-1.9024-2.1406-1.9024m0 4.6133c-1.7461 0-3.1094-1.0586-3.1094-2.7109 0-1.6524 1.2461-2.8125 3.1094-2.8125 1.8398 0 3.1484 1.1602 3.1484 2.8125 0 1.6523-1.3086 2.7109-3.1484 2.7109" fill="#fff"/>
<path d="m157.27 173.1h-2.0156v-0.82812h2.9883v2.0312c-0.51562 0.76953-1.7695 1-2.4844 1-1.7227 0-3.0977-0.85938-3.0977-2.7617 0-1.6953 1.0742-2.7617 3.0859-2.7617 1.2422 0 1.9453 0.30469 2.4648 0.86719l-0.625 0.73437c-0.36328-0.40234-0.77734-0.69922-1.9219-0.69922-1.3008 0-2.0312 0.66016-2.0312 1.8516 0 1.2656 0.89062 1.875 2.1719 1.875 0.67969 0 1.1914-0.16406 1.4648-0.45312z" fill="#fff"/>
<path d="m160.02 169.87h0.96484v5.3047h-0.96484z" fill="#fff"/>
<path d="m162.83 175.17v-5.3047h4.3398v0.875h-3.3789v1.3203h3.0078v0.75782h-3.0078v1.4492h3.457v0.90234z" fill="#fff"/>
<path d="m172.5 171.17c-0.44531-0.375-1.0195-0.54688-1.5898-0.54688-0.42969 0-1.1836 0.11328-1.1836 0.67969 0 0.54687 0.625 0.63672 1.2852 0.7539 1.1328 0.20313 2.207 0.46094 2.207 1.6406 0 1.2695-1.2578 1.5898-2.2656 1.5898-0.88281 0-1.875-0.24218-2.3984-1.0078l0.69531-0.64062c0.39453 0.58203 1.0742 0.79687 1.7461 0.79687 0.50391 0 1.2812-0.082 1.2812-0.71875 0-1.25-3.5234-0.3125-3.5234-2.3398 0-1.1836 1.1992-1.6055 2.1602-1.6055 0.74219 0 1.5234 0.13672 2.125 0.60937z" fill="#fff"/>
</svg>
