<?xml version="1.0" encoding="UTF-8" standalone="no"?>
<svg
   width="200pt"
   height="200pt"
   viewBox="0 0 200 199.99999"
   version="1.1"
   id="svg98"
   sodipodi:docname="logo.svg"
   inkscape:version="1.2.2 (b0a8486541, 2022-12-01)"
   xmlns:inkscape="http://www.inkscape.org/namespaces/inkscape"
   xmlns:sodipodi="http://sodipodi.sourceforge.net/DTD/sodipodi-0.dtd"
   xmlns="http://www.w3.org/2000/svg"
   xmlns:svg="http://www.w3.org/2000/svg">
  <defs
     id="defs102" />
  <sodipodi:namedview
     id="namedview100"
     pagecolor="#505050"
     bordercolor="#eeeeee"
     borderopacity="1"
     inkscape:showpageshadow="0"
     inkscape:pageopacity="0"
     inkscape:pagecheckerboard="0"
     inkscape:deskcolor="#505050"
     inkscape:document-units="pt"
     showgrid="false"
     inkscape:zoom="2.1771266"
     inkscape:cx="52.592256"
     inkscape:cy="126.08362"
     inkscape:window-width="1912"
     inkscape:window-height="1043"
     inkscape:window-x="4"
     inkscape:window-y="33"
     inkscape:window-maximized="0"
     inkscape:current-layer="svg98" />
  <path
     fill-rule="nonzero"
     fill="#1eb7f1"
     fill-opacity="1"
     d="m 141.50195,66.99804 c -1.21875,0 -2.20704,-0.98828 -2.20704,-2.20312 0,-1.21875 0.98829,-2.20313 2.20704,-2.20313 1.21484,0 2.19921,0.98438 2.19921,2.20313 0,1.21484 -0.98437,2.20312 -2.19921,2.20312 m 0,-6.89453 c -2.59375,0 -4.69532,2.09766 -4.69532,4.69141 0,2.59375 2.10157,4.69531 4.69532,4.69531 2.58984,0 4.6914,-2.10156 4.6914,-4.69531 0,-2.59375 -2.10156,-4.69141 -4.6914,-4.69141"
     id="path18" />
  <path
     fill-rule="nonzero"
     fill="#1eb7f1"
     fill-opacity="1"
     d="M 100.00196,127.54101 55.470706,101.83008 V 90.52929 h 6.0625 v 7.80079 L 100.00196,120.54101 138.4707,98.33008 V 79.41992 H 55.470706 V 50.41211 L 100.00196,24.70117 144.5332,50.41211 v 11.99218 h -6.0625 V 53.91601 L 100.00196,31.70508 61.533206,53.91601 v 19.4375 H 144.5332 v 28.47657 z m 0,0"
     id="path20" />
  <path
     fill-rule="nonzero"
     fill="#687279"
     fill-opacity="1"
     d="M 100.00196,112.74804 68.287106,94.43554 V 57.81445 l 31.714854,-18.3125 31.71483,18.3125 v 11.67188 h -6.0625 v -8.17188 l -25.65233,-14.8125 -25.652354,14.8125 v 29.61719 l 25.652354,14.8125 25.65233,-14.8125 v -7.6211 h 6.0625 v 11.125 z m 0,0"
     id="path22" />
  <path
     fill-rule="nonzero"
     fill="#687279"
     fill-opacity="1"
     d="m 95.365236,58.9082 h 3.90234 v -3.89844 h -3.90234 z m 0,0"
     id="path24" />
  <path
     fill-rule="nonzero"
     fill="#687279"
     fill-opacity="1"
     d="m 100.73633,58.9082 h 3.90234 v -3.89844 h -3.90234 z m 0,0"
     id="path26" />
  <path
     fill-rule="nonzero"
     fill="#687279"
     fill-opacity="1"
     d="m 95.365236,63.96289 h 3.90234 v -3.90235 h -3.90234 z m 0,0"
     id="path28" />
  <path
     fill-rule="nonzero"
     fill="#687279"
     fill-opacity="1"
     d="m 100.73633,63.96289 h 3.90234 v -3.90235 h -3.90234 z m 0,0"
     id="path30" />
  <path
     fill-rule="nonzero"
     fill="#1eb7f1"
     fill-opacity="1"
     d="m 58.501956,90.19726 c -1.21875,0 -2.20313,-0.98437 -2.20313,-2.19922 0,-1.21875 0.98438,-2.20703 2.20313,-2.20703 1.21875,0 2.20312,0.98828 2.20312,2.20703 0,1.21485 -0.98437,2.19922 -2.20312,2.19922 m 0,-6.89453 c -2.58985,0 -4.69141,2.10156 -4.69141,4.69531 0,2.58985 2.10156,4.69141 4.69141,4.69141 2.59375,0 4.69531,-2.10156 4.69531,-4.69141 0,-2.59375 -2.10156,-4.69531 -4.69531,-4.69531"
     id="path32" />
  <path
     fill-rule="nonzero"
     fill="#1eb7f1"
     fill-opacity="1"
     d="m 22.611326,147.43554 c -1.45312,-1.23437 -3.34766,-1.79687 -5.21484,-1.79687 -1.40625,0 -3.88672,0.36719 -3.88672,2.23437 0,1.79688 2.0664,2.08985 4.22656,2.47266 3.71094,0.65625 7.23047,1.50781 7.23047,5.36719 0,4.17187 -4.125,5.21875 -7.42578,5.21875 -2.89063,0 -6.14063,-0.80078 -7.86328,-3.30469 l 2.28125,-2.10937 c 1.28906,1.91796 3.51953,2.62109 5.72656,2.62109 1.65234,0 4.19922,-0.26563 4.19922,-2.35547 0,-4.10156 -11.54688,-1.01953 -11.54688,-7.66797 0,-3.88281 3.92578,-5.26562 7.08203,-5.26562 2.42579,0 5,0.4375 6.96485,1.98828 z m 0,0"
     id="path34" />
  <path
     fill-rule="nonzero"
     fill="#1eb7f1"
     fill-opacity="1"
     d="m 45.248046,160.54101 v -12.27734 l -6.50391,12.27734 h -1.48047 l -6.59765,-12.27734 v 12.27734 h -2.98438 v -17.39843 h 3.71094 l 6.64844,12.73828 6.64844,-12.73828 h 3.59375 v 17.39843 z m 0,0"
     id="path36" />
  <path
     fill-rule="nonzero"
     fill="#1eb7f1"
     fill-opacity="1"
     d="m 60.794916,146.58398 -3.51953,6.89453 h 6.99219 z m 6.94141,13.95703 -2.28125,-4.5625 h -9.36328 l -2.28516,4.5625 h -3.5664 l 9.03125,-17.39843 h 3.03125 l 9.17187,17.39843 z m 0,0"
     id="path38" />
  <path
     fill-rule="nonzero"
     fill="#1eb7f1"
     fill-opacity="1"
     d="m 76.611326,146.02929 v 5.82422 h 6.06641 c 1.79687,0 3.40234,-0.85156 3.40234,-2.96093 0,-2.0625 -1.45703,-2.86329 -3.42969,-2.86329 z m 10.62891,14.51172 -4.77735,-6.0664 h -5.85156 v 6.0664 h -3.15625 v -17.39843 h 9.44141 c 4.80859,0 6.28515,2.47656 6.28515,5.65234 0,2.42578 -1.35547,4.36719 -3.78125,4.92578 l 5.67578,6.82031 z m 0,0"
     id="path40" />
  <path
     fill-rule="nonzero"
     fill="#1eb7f1"
     fill-opacity="1"
     d="m 97.380856,160.54101 v -14.51172 h -6.55078 v -2.88671 h 16.253914 v 2.88671 h -6.54688 v 14.51172 z m 0,0"
     id="path42" />
  <path
     fill-rule="nonzero"
     fill="#687279"
     fill-opacity="1"
     d="m 134.25976,157.87304 c -1.28516,1.67188 -4.14844,3.0586 -7.76563,3.0586 -5.72656,0 -10.26562,-3.27735 -10.26562,-9.07813 0,-5.24218 3.64062,-9.0039 10.72656,-9.0039 3.66406,0 6.42969,1.38281 7.40234,2.78906 l -1.99218,2.42969 c -1.14063,-1.48438 -3.00782,-2.28516 -5.75,-2.28516 -4.5625,0 -7.13282,2.45313 -7.13282,6.07031 0,3.76172 2.83985,6.08985 7.01172,6.08985 2.54688,0 4.58594,-0.67578 5.77735,-2.32813 z m 0,0"
     id="path44" />
  <path
     fill-rule="nonzero"
     fill="#687279"
     fill-opacity="1"
     d="m 150.82616,143.14258 h 3.15625 v 10.69921 c 0,5.36719 -4.19921,7.10938 -8.51562,7.10938 -4.32031,0 -8.51953,-1.74219 -8.51953,-7.10938 v -10.69921 h 3.1289 v 10.57812 c 0,2.9375 2.0625,4.32031 5.39063,4.32031 3.32422,0 5.35937,-1.38281 5.35937,-4.32031 z m 0,0"
     id="path46" />
  <path
     fill-rule="nonzero"
     fill="#687279"
     fill-opacity="1"
     d="m 160.45507,152.67773 v 4.92969 h 6.26172 c 2.23437,0 3.35156,-0.89844 3.35156,-2.45313 0,-1.82031 -1.46094,-2.47656 -3.30469,-2.47656 z m 0,-6.64844 v 4.46485 h 5.60547 c 2.33203,0 2.89062,-1.14063 2.89062,-2.32813 0,-1.26172 -0.80078,-2.13672 -2.9375,-2.13672 z m -3.15234,14.51172 v -17.39843 h 8.1289 c 4.17188,0 6.59766,1.57812 6.59766,4.70703 0,1.67578 -0.77344,2.96093 -2.32813,3.37109 1.84375,0.33984 3.44532,1.60547 3.44532,4.10156 0,3.32422 -2.32813,5.21875 -6.40625,5.21875 z m 0,0"
     id="path48" />
  <path
     fill-rule="nonzero"
     fill="#687279"
     fill-opacity="1"
     d="m 175.83788,160.54101 v -17.39843 h 14.21875 v 2.86328 h -11.0664 v 4.33984 h 9.85156 v 2.48047 h -9.85156 v 4.75391 h 11.33203 v 2.96093 z m 0,0"
     id="path50" />
  <path
     fill-rule="nonzero"
     fill="#687279"
     fill-opacity="1"
     d="m 30.732416,171.17383 c -0.44531,-0.375 -1.01953,-0.54688 -1.59375,-0.54688 -0.42968,0 -1.18359,0.11328 -1.18359,0.67969 0,0.54687 0.63281,0.63672 1.28906,0.7539 1.13282,0.20313 2.20703,0.46094 2.20703,1.64063 0,1.26953 -1.26171,1.58984 -2.26953,1.58984 -0.8789,0 -1.87109,-0.24218 -2.39453,-1.00781 l 0.69531,-0.64062 c 0.39454,0.58203 1.07422,0.79687 1.7461,0.79687 0.5039,0 1.28125,-0.082 1.28125,-0.71875 0,-1.25 -3.52344,-0.3125 -3.52344,-2.33984 0,-1.1836 1.19922,-1.60547 2.16016,-1.60547 0.73828,0 1.52343,0.13672 2.1289,0.60937 z m 0,0"
     id="path52" />
  <path
     fill-rule="nonzero"
     fill="#687279"
     fill-opacity="1"
     d="m 38.384766,175.16992 v -3.74609 l -1.98438,3.74609 h -0.45312 l -2.01172,-3.74609 v 3.74609 h -0.91016 v -5.30469 h 1.12891 l 2.03125,3.88281 2.02734,-3.88281 h 1.09766 v 5.30469 z m 0,0"
     id="path54" />
  <path
     fill-rule="nonzero"
     fill="#687279"
     fill-opacity="1"
     d="m 43.876956,170.91601 -1.07422,2.10157 h 2.13281 z m 2.11328,4.25391 -0.69141,-1.39063 h -2.85937 l -0.69922,1.39063 h -1.08594 l 2.75391,-5.30469 h 0.92578 l 2.80078,5.30469 z m 0,0"
     id="path56" />
  <path
     fill-rule="nonzero"
     fill="#687279"
     fill-opacity="1"
     d="m 49.451166,170.74414 v 1.77734 h 1.84766 c 0.54688,0 1.03906,-0.25781 1.03906,-0.90234 0,-0.62891 -0.44922,-0.875 -1.04687,-0.875 z m 3.23829,4.42578 -1.45704,-1.85156 h -1.78125 v 1.85156 h -0.96484 v -5.30469 h 2.875 c 1.46875,0 1.92188,0.75391 1.92188,1.72656 0,0.73829 -0.41407,1.32813 -1.15625,1.50391 l 1.73046,2.07422 z m 0,0"
     id="path58" />
  <path
     fill-rule="nonzero"
     fill="#687279"
     fill-opacity="1"
     d="m 56.533206,175.16992 v -4.42578 h -2.00391 v -0.87891 h 4.96094 v 0.87891 h -1.9961 v 4.42578 z m 0,0"
     id="path60" />
  <path
     fill-rule="nonzero"
     fill="#687279"
     fill-opacity="1"
     d="m 63.951166,175.16992 v -5.30469 h 0.96094 v 4.41406 h 3.29297 v 0.89063 z m 0,0"
     id="path62" />
  <path
     fill-rule="nonzero"
     fill="#687279"
     fill-opacity="1"
     d="m 69.689456,169.86523 h 0.96484 v 5.30469 h -0.96484 z m 0,0"
     id="path64" />
  <path
     fill-rule="nonzero"
     fill="#687279"
     fill-opacity="1"
     d="m 74.666016,175.16992 -2.625,-5.30469 h 1.10547 l 1.83203,3.83594 1.79297,-3.83594 h 1.05468 l -2.58984,5.30469 z m 0,0"
     id="path66" />
  <path
     fill-rule="nonzero"
     fill="#687279"
     fill-opacity="1"
     d="m 79.216796,169.86523 h 0.96484 v 5.30469 h -0.96484 z m 0,0"
     id="path68" />
  <path
     fill-rule="nonzero"
     fill="#687279"
     fill-opacity="1"
     d="m 86.275386,175.16992 -3.30468,-3.73047 v 3.73047 h -0.94532 v -5.30469 h 0.97657 l 3.26562,3.8711 v -3.8711 h 0.9375 v 5.30469 z m 0,0"
     id="path70" />
  <path
     fill-rule="nonzero"
     fill="#687279"
     fill-opacity="1"
     d="m 93.439456,173.0957 h -2.01563 v -0.82812 h 2.98438 v 2.03125 c -0.50782,0.76953 -1.76954,1 -2.48047,1 -1.72266,0 -3.10157,-0.85938 -3.10157,-2.76172 0,-1.69532 1.07422,-2.76172 3.08594,-2.76172 1.2461,0 1.94922,0.30469 2.46485,0.86719 l -0.6211,0.73437 c -0.36328,-0.40234 -0.77734,-0.69922 -1.92187,-0.69922 -1.30469,0 -2.03125,0.66016 -2.03125,1.85156 0,1.26563 0.89062,1.875 2.17187,1.875 0.67969,0 1.19141,-0.16406 1.46485,-0.45312 z m 0,0"
     id="path72" />
  <path
     fill-rule="nonzero"
     fill="#687279"
     fill-opacity="1"
     d="m 100.79492,175.16992 v -4.42578 h -1.992184 v -0.87891 h 4.957034 v 0.87891 h -2 v 4.42578 z m 0,0"
     id="path74" />
  <path
     fill-rule="nonzero"
     fill="#687279"
     fill-opacity="1"
     d="m 105.17774,175.16992 v -5.30469 h 4.33984 v 0.875 h -3.37891 v 1.32031 h 3.00782 v 0.75782 h -3.00782 v 1.44922 h 3.45704 v 0.90234 z m 0,0"
     id="path76" />
  <path
     fill-rule="nonzero"
     fill="#687279"
     fill-opacity="1"
     d="m 116.5371,174.35742 c -0.39062,0.51172 -1.26562,0.93359 -2.36719,0.93359 -1.74609,0 -3.13281,-1 -3.13281,-2.76953 0,-1.59765 1.11328,-2.74609 3.27344,-2.74609 1.11719,0 1.96094,0.42187 2.25781,0.85156 l -0.60547,0.73828 c -0.35156,-0.44922 -0.91797,-0.6914 -1.75781,-0.6914 -1.39062,0 -2.17578,0.74609 -2.17578,1.84765 0,1.14844 0.86719,1.85938 2.14062,1.85938 0.77344,0 1.39844,-0.20703 1.76172,-0.71094 z m 0,0"
     id="path78" />
  <path
     fill-rule="nonzero"
     fill="#687279"
     fill-opacity="1"
     d="m 122.19335,175.16992 v -2.27734 h -3.0625 v 2.27734 h -0.96484 v -5.30469 h 0.96484 v 2.10156 h 3.0625 v -2.10156 h 0.96094 v 5.30469 z m 0,0"
     id="path80" />
  <path
     fill-rule="nonzero"
     fill="#687279"
     fill-opacity="1"
     d="m 129.21679,175.16992 -3.30469,-3.73047 v 3.73047 h -0.94531 v -5.30469 h 0.97656 l 3.26563,3.8711 v -3.8711 h 0.9414 v 5.30469 z m 0,0"
     id="path82" />
  <path
     fill-rule="nonzero"
     fill="#687279"
     fill-opacity="1"
     d="m 134.87695,170.68554 c -1.23047,0 -2.13282,0.73829 -2.13282,1.90235 0,1.15625 0.94922,1.82031 2.13282,1.82031 1.24609,0 2.14062,-0.66406 2.14062,-1.82031 0,-1.16406 -0.89453,-1.90235 -2.14062,-1.90235 m 0,4.61329 c -1.7461,0 -3.10938,-1.0586 -3.10938,-2.71094 0,-1.65235 1.24609,-2.8125 3.10938,-2.8125 1.83593,0 3.14453,1.16015 3.14453,2.8125 0,1.65234 -1.3086,2.71094 -3.14453,2.71094"
     id="path84" />
  <path
     fill-rule="nonzero"
     fill="#687279"
     fill-opacity="1"
     d="m 139.6582,175.16992 v -5.30469 h 0.96484 v 4.41406 h 3.29297 v 0.89063 z m 0,0"
     id="path86" />
  <path
     fill-rule="nonzero"
     fill="#687279"
     fill-opacity="1"
     d="m 148.05663,170.68554 c -1.22656,0 -2.13281,0.73829 -2.13281,1.90235 0,1.15625 0.94531,1.82031 2.13281,1.82031 1.24219,0 2.14063,-0.66406 2.14063,-1.82031 0,-1.16406 -0.89844,-1.90235 -2.14063,-1.90235 m 0,4.61329 c -1.74609,0 -3.10937,-1.0586 -3.10937,-2.71094 0,-1.65235 1.24609,-2.8125 3.10937,-2.8125 1.83985,0 3.14844,1.16015 3.14844,2.8125 0,1.65234 -1.30859,2.71094 -3.14844,2.71094"
     id="path88" />
  <path
     fill-rule="nonzero"
     fill="#687279"
     fill-opacity="1"
     d="m 157.27148,173.0957 h -2.01563 v -0.82812 h 2.98828 v 2.03125 c -0.51562,0.76953 -1.76953,1 -2.48437,1 -1.72266,0 -3.09766,-0.85938 -3.09766,-2.76172 0,-1.69532 1.07422,-2.76172 3.08594,-2.76172 1.24219,0 1.94531,0.30469 2.46484,0.86719 l -0.625,0.73437 c -0.36328,-0.40234 -0.77734,-0.69922 -1.92187,-0.69922 -1.30078,0 -2.03125,0.66016 -2.03125,1.85156 0,1.26563 0.89062,1.875 2.17187,1.875 0.67969,0 1.19141,-0.16406 1.46485,-0.45312 z m 0,0"
     id="path90" />
  <path
     fill-rule="nonzero"
     fill="#687279"
     fill-opacity="1"
     d="m 160.02148,169.86523 h 0.96484 v 5.30469 h -0.96484 z m 0,0"
     id="path92" />
  <path
     fill-rule="nonzero"
     fill="#687279"
     fill-opacity="1"
     d="m 162.83398,175.16992 v -5.30469 h 4.33984 v 0.875 h -3.37891 v 1.32031 h 3.00782 v 0.75782 h -3.00782 v 1.44922 h 3.45704 v 0.90234 z m 0,0"
     id="path94" />
  <path
     fill-rule="nonzero"
     fill="#687279"
     fill-opacity="1"
     d="m 172.49804,171.17383 c -0.44531,-0.375 -1.01953,-0.54688 -1.58984,-0.54688 -0.42969,0 -1.1836,0.11328 -1.1836,0.67969 0,0.54687 0.625,0.63672 1.28516,0.7539 1.13281,0.20313 2.20703,0.46094 2.20703,1.64063 0,1.26953 -1.25781,1.58984 -2.26563,1.58984 -0.88281,0 -1.875,-0.24218 -2.39843,-1.00781 l 0.69531,-0.64062 c 0.39453,0.58203 1.07422,0.79687 1.74609,0.79687 0.50391,0 1.28125,-0.082 1.28125,-0.71875 0,-1.25 -3.52343,-0.3125 -3.52343,-2.33984 0,-1.1836 1.19921,-1.60547 2.16015,-1.60547 0.74219,0 1.52344,0.13672 2.125,0.60937 z m 0,0"
     id="path96" />
</svg>
